<?xml version="1.0" encoding="utf-8"?>
<!-- Generator: Adobe Illustrator 17.0.0, SVG Export Plug-In . SVG Version: 6.00 Build 0)  -->
<!DOCTYPE svg PUBLIC "-//W3C//DTD SVG 1.1//EN" "http://www.w3.org/Graphics/SVG/1.1/DTD/svg11.dtd">
<svg version="1.1" id="Layer_1" xmlns="http://www.w3.org/2000/svg" xmlns:xlink="http://www.w3.org/1999/xlink" x="0px" y="0px"
	 width="458.333px" height="362.688px" viewBox="0 0 458.333 362.688" enable-background="new 0 0 458.333 362.688"
	 xml:space="preserve">
<g>
	<linearGradient id="SVGID_1_" gradientUnits="userSpaceOnUse" x1="183.8579" y1="333.2783" x2="183.8579" y2="23.9385">
		<stop  offset="0" style="stop-color:#381939"/>
		<stop  offset="1" style="stop-color:#8A232E"/>
	</linearGradient>
	<path fill="url(#SVGID_1_)" d="M276.629,284.532c-6.99-13.379-19.472-23.389-34.459-27.116c-4.144-1.031-8.456-1.638-12.919-1.638
		c-4.489,0-8.824,0.614-12.99,1.656l-18.566-23.495l-78.308-99.101c-8.722,11.929-20.586,21.419-34.377,27.22l78.308,99.101
		l18.522,23.44c-3.841,7.376-6.044,15.742-6.044,24.634c0,29.522,23.932,53.455,53.455,53.455s53.455-23.932,53.455-53.455
		C282.706,300.315,280.491,291.925,276.629,284.532z"/>
	<linearGradient id="SVGID_2_" gradientUnits="userSpaceOnUse" x1="175.066" y1="333.2783" x2="175.066" y2="23.9385">
		<stop  offset="0" style="stop-color:#381939"/>
		<stop  offset="1" style="stop-color:#8A232E"/>
	</linearGradient>
	<path fill="url(#SVGID_2_)" d="M229.21,0c-42.02,0-83.243,9.134-120.979,26.276c-9.49,4.311-18.771,9.095-27.774,14.41
		c-7.931-4.658-17.139-7.377-27.002-7.377C23.932,33.309,0,57.242,0,86.764s23.932,53.455,53.455,53.455
		c4.489,0,8.824-0.614,12.99-1.656c14.981-3.747,27.448-13.774,34.421-27.165c3.841-7.376,6.044-15.742,6.044-24.634
		c0-3.469-0.358-6.852-0.989-10.137c8.379-4.783,17.008-9.084,25.86-12.853C162.37,50.747,195.492,43.85,229.21,43.85
		c33.69,0,66.785,6.885,97.352,19.89c4.301-14.604,12.567-27.525,23.57-37.489C312.411,9.125,271.209,0,229.21,0z"/>
	<linearGradient id="SVGID_3_" gradientUnits="userSpaceOnUse" x1="359.5376" y1="333.2783" x2="359.5376" y2="23.9385">
		<stop  offset="0" style="stop-color:#381939"/>
		<stop  offset="1" style="stop-color:#8A232E"/>
	</linearGradient>
	<path fill="url(#SVGID_3_)" d="M404.878,33.309c-9.845,0-19.037,2.708-26.959,7.35c-13.029,7.636-22.542,20.594-25.5,35.923
		c-0.637,3.299-0.996,6.697-0.996,10.181c0,8.918,2.214,17.309,6.077,24.701l-18.514,23.429l-78.245,99.019
		c13.797,5.79,25.67,15.269,34.401,27.19l78.245-99.019l18.572-23.503c4.144,1.031,8.455,1.638,12.918,1.638
		c29.522,0,53.455-23.932,53.455-53.455S434.401,33.309,404.878,33.309z"/>
</g>
</svg>
